<svg width="476" height="528" viewBox="0 0 476 528" fill="none" xmlns="http://www.w3.org/2000/svg">
<g opacity="0.23">
<path d="M222.571 201.293C222.218 200.869 221.587 200.811 221.163 201.165C220.739 201.518 220.681 202.149 221.035 202.573L221.803 201.933L222.571 201.293ZM273.317 263.75L274.086 264.39C274.395 264.02 274.395 263.481 274.086 263.11L273.317 263.75ZM221.035 324.927C220.681 325.351 220.739 325.982 221.163 326.335C221.587 326.689 222.218 326.632 222.571 326.207L221.803 325.567L221.035 324.927ZM149.683 262.75C149.131 262.75 148.683 263.198 148.683 263.75C148.683 264.302 149.131 264.75 149.683 264.75V263.75V262.75ZM221.803 201.933L221.035 202.573L272.549 264.39L273.317 263.75L274.086 263.11L222.571 201.293L221.803 201.933ZM273.317 263.75L272.549 263.11L221.035 324.927L221.803 325.567L222.571 326.207L274.086 264.39L273.317 263.75ZM273.317 263.75V262.75L149.683 262.75V263.75V264.75L273.317 264.75V263.75ZM310.407 362.657L309.699 361.95C255.465 416.184 167.535 416.184 113.301 361.95L112.593 362.657L111.886 363.364C166.901 418.379 256.099 418.379 311.114 363.364L310.407 362.657ZM112.593 362.657L113.301 361.95C59.0665 307.716 59.0665 219.785 113.301 165.551L112.593 164.844L111.886 164.137C56.8712 219.152 56.8712 308.349 111.886 363.364L112.593 362.657ZM112.593 164.844L113.301 165.551C167.535 111.317 255.465 111.317 309.699 165.551L310.407 164.844L311.114 164.137C256.099 109.122 166.901 109.122 111.886 164.137L112.593 164.844ZM310.407 164.844L309.699 165.551C363.934 219.785 363.934 307.716 309.699 361.95L310.407 362.657L311.114 363.364C366.129 308.349 366.129 219.152 311.114 164.137L310.407 164.844Z" fill="#C6C6C6"/>
</g>
</svg>
