<svg width="24" height="25" viewBox="0 0 24 25" fill="none" xmlns="http://www.w3.org/2000/svg">
<path d="M11.8176 2.18555V9.61458C11.8176 9.64611 11.7871 9.67765 11.7567 9.67765C11.5435 9.77406 11.3608 9.86957 11.1477 9.96508C10.8737 10.0921 10.5692 10.2201 10.2951 10.3796L9.29032 10.8571L8.4682 11.24L7.46339 11.7185C7.18935 11.8464 6.91532 11.9735 6.61083 12.133C6.39769 12.2285 6.1541 12.3564 5.94096 12.4519C5.91051 12.4519 5.91051 12.4835 5.88006 12.4519H5.84961C5.94096 12.2925 6.0323 12.1645 6.12365 12.0059C6.61083 11.1445 7.12846 10.284 7.61564 9.42266C8.13327 8.4991 8.68134 7.57373 9.19897 6.64927C9.68615 5.78878 10.1733 4.9283 10.6605 4.09934C11.0259 3.46051 11.3913 2.85592 11.7262 2.21708C11.7871 2.21708 11.7871 2.18555 11.8176 2.18555C11.8176 2.18555 11.7871 2.18555 11.8176 2.18555Z" fill="#8C8C8C"/>
<path d="M17.7344 12.4504C17.2777 12.7693 16.7905 13.0558 16.3337 13.3424C14.8418 14.2677 13.3802 15.1607 11.8882 16.0851C11.8578 16.0851 11.8578 16.1167 11.8273 16.1167C11.7969 16.1167 11.7969 16.0851 11.7969 16.0851V9.67607C11.7969 9.64453 11.8273 9.64453 11.8578 9.64453C11.9796 9.7076 12.1014 9.77248 12.2536 9.83555C12.619 10.0275 13.0148 10.187 13.3802 10.378C13.7151 10.5375 14.0196 10.6969 14.3546 10.824C14.6895 10.9835 14.994 11.143 15.3289 11.3024C15.603 11.4304 15.9075 11.5574 16.1815 11.7169C16.4555 11.8449 16.76 11.9719 17.0341 12.1314C17.2472 12.2269 17.4603 12.3548 17.7039 12.4504C17.7039 12.4188 17.7039 12.4504 17.7344 12.4504Z" fill="#141414"/>
<path d="M11.8262 22.3671C11.7957 22.3671 11.8262 22.3671 11.8262 22.3671C11.7957 22.3671 11.7957 22.3671 11.7653 22.3346C11.1563 21.4426 10.5778 20.5812 9.96881 19.6883L8.14188 17.0104C7.56335 16.1499 6.95438 15.2895 6.37585 14.3956L5.91912 13.7262C5.91912 13.6946 5.88867 13.6946 5.88867 13.6631C5.91912 13.6631 5.91912 13.6946 5.94957 13.6946C6.77169 14.2046 7.62425 14.7146 8.44637 15.2246C9.39028 15.831 10.3646 16.4049 11.3086 17.0104C11.4608 17.1059 11.6435 17.2014 11.7957 17.297C11.8262 17.297 11.8262 17.3294 11.8262 17.3609V22.3671Z" fill="#8C8C8C"/>
<path d="M5.84961 12.1189C5.84961 12.0874 5.84961 12.0874 5.84961 12.1189C6.1541 11.9594 6.45858 11.8324 6.76307 11.6729L7.95057 11.0989C8.25506 10.9394 8.55955 10.8124 8.86404 10.6529C9.29032 10.4295 9.74705 10.2384 10.1733 10.015C10.4778 9.88703 10.7823 9.72755 11.0868 9.6005C11.2999 9.50499 11.5131 9.40948 11.7262 9.28154C11.7567 9.28154 11.7567 9.25 11.7871 9.25V15.7537C11.7567 15.7861 11.7567 15.7537 11.7262 15.7537C11.6349 15.6906 11.5435 15.6582 11.4826 15.5942L5.91051 12.1513C5.88006 12.1189 5.84961 12.1189 5.84961 12.1189ZM17.6333 13.2992C17.6333 13.3308 17.6333 13.3308 17.6028 13.3623C15.8368 15.9771 14.0708 18.5595 12.3047 21.1743C12.1221 21.4608 11.9394 21.7158 11.7567 22.0032V16.9331C12.1525 16.6781 12.5483 16.4231 12.9442 16.2006L17.6028 13.3308C17.6028 13.2992 17.6333 13.2992 17.6333 13.2992Z" fill="#3C3C3B"/>
<path d="M11.8301 9.64598V2.21875L17.6762 12.3572C17.7067 12.3887 17.7371 12.4203 17.7371 12.4527C17.6153 12.3896 17.4935 12.3248 17.3413 12.2617C17.1891 12.1977 17.0368 12.1022 16.8846 12.0382C16.7932 12.0067 16.7019 11.9427 16.5801 11.9103C16.4278 11.8472 16.2451 11.7508 16.0929 11.6877C16.0016 11.6553 15.9102 11.5922 15.8189 11.5598L15.1794 11.2732C15.0576 11.2093 14.9663 11.1777 14.8445 11.1138C14.6923 11.0498 14.54 10.9543 14.3878 10.8903C14.2964 10.8588 14.2051 10.7948 14.1137 10.7633L13.4743 10.4758C13.3525 10.4128 13.2612 10.3803 13.1394 10.3163C12.9871 10.2533 12.8349 10.1569 12.6826 10.0929C12.5913 10.0298 12.4695 9.99738 12.3782 9.93431L11.8301 9.64688V9.64598Z" fill="#343434"/>
</svg>
