<svg width="16" height="13" viewBox="0 0 16 13" fill="none" xmlns="http://www.w3.org/2000/svg">
<path d="M14.6359 0.113002C14.6359 0.113002 16.116 -0.441055 15.9927 0.904513C15.9516 1.45858 15.5816 3.39778 15.2938 5.49529L14.307 11.7087C14.307 11.7087 14.2248 12.6189 13.4847 12.7772C12.7447 12.9355 11.6346 12.2232 11.429 12.0648C11.2645 11.9461 8.34545 10.1652 7.31757 9.29455C7.02976 9.05709 6.70084 8.58218 7.35867 8.02812L11.6757 4.07058C12.1691 3.59566 12.6624 2.48755 10.6067 3.83312L4.85071 7.59281C4.85071 7.59281 4.19288 7.98855 2.95947 7.63238L0.287018 6.84086C0.287018 6.84086 -0.69973 6.24724 0.985963 5.65357C5.09741 3.79351 10.1545 1.89389 14.6359 0.113002Z" fill="#62748E"/>
</svg>
